<?xml version="1.0" encoding="UTF-8"?>
<svg xmlns="http://www.w3.org/2000/svg" xmlns:xlink="http://www.w3.org/1999/xlink" viewBox="-222.8166675567627 -949 2473.5100009059906 358" width="1200" height="174">
<rect x="-222.8166675567627" y="-949" width="2473.5100009059906" height="358" fill="#f8f8f8"/>
<g id="lines">
<path d="M 720 -760 L 720 -720 L 760 -680 L 840 -680 L 920 -680 L 1000 -680 L 1080 -680 L 1200 -680 L 1280 -680 L 1360 -680 L 1440 -680 L 1520 -680 L 1600 -680 L 1680 -680 L 1760 -680 L 1840 -680" fill="none" stroke="#ff7800" stroke-width="6" stroke-linecap="round" stroke-linejoin="round"/>
<path d="M 120 -754 L 200 -754 L 280 -754 L 360 -754 L 440 -754 L 520 -754 L 526 -760 L 620 -760 L 720 -760 L 800 -760 L 880 -760 L 960 -760 L 1040 -760 L 1120 -760 L 1160 -760 L 1200 -720 L 1200 -680" fill="none" stroke="#f6d32d" stroke-width="6" stroke-linecap="round" stroke-linejoin="round"/>
<path d="M -120 -760 L -40 -760 L 40 -760 L 46 -766 L 120 -766 L 200 -766 L 280 -766 L 360 -766 L 440 -766 L 520 -766 L 594 -840 L 640 -840 L 720 -840 L 800 -840 L 880 -840 L 960 -840 L 1040 -840 L 1120 -840 L 1200 -840 L 1280 -840 L 1360 -840 L 1440 -840 L 1520 -840 L 1600 -840" fill="none" stroke="#33d17a" stroke-width="6" stroke-linecap="round" stroke-linejoin="round"/>
</g>
<g id="stations">
<circle cx="800" cy="-760" r="10" fill="white" stroke="#666" stroke-width="2.5"/>
<g>
<text x="727.1333332061768" y="-737" font-size="12" font-family="sans-serif" font-weight="bold" fill="#000" text-anchor="start">Réformés-Canebière</text>
</g>
<circle cx="960" cy="-840" r="10" fill="white" stroke="#666" stroke-width="2.5"/>
<g>
<text x="928.7083339691162" y="-857" font-size="12" font-family="sans-serif" font-weight="bold" fill="#000" text-anchor="start">Castellane</text>
</g>
<circle cx="1200" cy="-680" r="10" fill="white" stroke="#666" stroke-width="2.5"/>
<g>
<text x="1149.600000500679" y="-657" font-size="12" font-family="sans-serif" font-weight="bold" fill="#000" text-anchor="start">La Blancarde</text>
</g>
<circle cx="720" cy="-760" r="10" fill="white" stroke="#666" stroke-width="2.5"/>
<g>
<text x="683.8166675567627" y="-777" font-size="12" font-family="sans-serif" font-weight="bold" fill="#000" text-anchor="start">Noailles</text>
</g>
<circle cx="1280" cy="-840" r="10" fill="white" stroke="#666" stroke-width="2.5"/>
<g>
<text x="1201.6583347320557" y="-857" font-size="12" font-family="sans-serif" font-weight="bold" fill="#000" text-anchor="start">Sainte-Marguerite-Dromel</text>
</g>
<circle cx="280" cy="-760" r="10" fill="white" stroke="#666" stroke-width="2.5"/>
<g>
<text x="246.3166675567627" y="-777" font-size="12" font-family="sans-serif" font-weight="bold" fill="#000" text-anchor="start">Joliette</text>
</g>
<circle cx="-120" cy="-760" r="10" fill="white" stroke="#666" stroke-width="2.5"/>
<g>
<text x="-162.8166675567627" y="-757" font-size="12" font-family="sans-serif" font-weight="bold" fill="#000" text-anchor="start">Gèze</text>
</g>
<circle cx="840" cy="-680" r="8" fill="#ff7800" stroke="white" stroke-width="2"/>
<g>
<text x="798.4000006914139" y="-697" font-size="12" font-family="sans-serif" font-weight="bold" fill="#000" text-anchor="start">Eugène Pierre</text>
</g>
<circle cx="920" cy="-680" r="8" fill="#ff7800" stroke="white" stroke-width="2"/>
<g>
<text x="900.1083335876465" y="-697" font-size="12" font-family="sans-serif" font-weight="bold" fill="#000" text-anchor="start">Camas</text>
</g>
<circle cx="1000" cy="-680" r="8" fill="#ff7800" stroke="white" stroke-width="2"/>
<g>
<text x="978.3250007629395" y="-697" font-size="12" font-family="sans-serif" font-weight="bold" fill="#000" text-anchor="start">George</text>
</g>
<circle cx="1080" cy="-680" r="8" fill="#ff7800" stroke="white" stroke-width="2"/>
<g>
<text x="1045.1583329439163" y="-697" font-size="12" font-family="sans-serif" font-weight="bold" fill="#000" text-anchor="start">Jean Martin</text>
</g>
<circle cx="1280" cy="-680" r="8" fill="#ff7800" stroke="white" stroke-width="2"/>
<g>
<text x="1235.6333332061768" y="-697" font-size="12" font-family="sans-serif" font-weight="bold" fill="#000" text-anchor="start">Sainte-Thérèse</text>
</g>
<circle cx="1360" cy="-680" r="8" fill="#ff7800" stroke="white" stroke-width="2"/>
<g>
<text x="1325.3250008821487" y="-657" font-size="12" font-family="sans-serif" font-weight="bold" fill="#000" text-anchor="start">Saint Pierre</text>
</g>
<circle cx="1440" cy="-680" r="8" fill="#ff7800" stroke="white" stroke-width="2"/>
<g>
<text x="1409.258333325386" y="-697" font-size="12" font-family="sans-serif" font-weight="bold" fill="#000" text-anchor="start">La Parette</text>
</g>
<circle cx="1520" cy="-680" r="8" fill="#ff7800" stroke="white" stroke-width="2"/>
<g>
<text x="1483.850000500679" y="-657" font-size="12" font-family="sans-serif" font-weight="bold" fill="#000" text-anchor="start">La Boiseraie</text>
</g>
<circle cx="1600" cy="-680" r="8" fill="#ff7800" stroke="white" stroke-width="2"/>
<g>
<text x="1580.0916662216187" y="-697" font-size="12" font-family="sans-serif" font-weight="bold" fill="#000" text-anchor="start">Air-Bel</text>
</g>
<circle cx="1680" cy="-680" r="8" fill="#ff7800" stroke="white" stroke-width="2"/>
<g>
<text x="1639.633333325386" y="-657" font-size="12" font-family="sans-serif" font-weight="bold" fill="#000" text-anchor="start">La Grognarde</text>
</g>
<circle cx="1760" cy="-680" r="8" fill="#ff7800" stroke="white" stroke-width="2"/>
<g>
<text x="1718.0416671037674" y="-697" font-size="12" font-family="sans-serif" font-weight="bold" fill="#000" text-anchor="start">William Booth</text>
</g>
<circle cx="1840" cy="-680" r="8" fill="#ff7800" stroke="white" stroke-width="2"/>
<g>
<text x="1854" y="-677" font-size="12" font-family="sans-serif" font-weight="bold" fill="#000" text-anchor="start">Les Caillols</text>
</g>
<circle cx="120" cy="-760" r="10" fill="white" stroke="#666" stroke-width="2.5"/>
<g>
<text x="46.48333275318146" y="-777" font-size="12" font-family="sans-serif" font-weight="bold" fill="#000" text-anchor="start">Arenc Euroméditerranée</text>
</g>
<circle cx="200" cy="-760" r="10" fill="white" stroke="#666" stroke-width="2.5"/>
<g>
<text x="124.64166569709778" y="-737" font-size="12" font-family="sans-serif" font-weight="bold" fill="#000" text-anchor="start">Euroméditerranée Le Silo</text>
</g>
<circle cx="360" cy="-760" r="10" fill="white" stroke="#666" stroke-width="2.5"/>
<g>
<text x="303.79999923706055" y="-737" font-size="12" font-family="sans-serif" font-weight="bold" fill="#000" text-anchor="start">République-Dames</text>
</g>
<circle cx="440" cy="-760" r="10" fill="white" stroke="#666" stroke-width="2.5"/>
<g>
<text x="405.5833331346512" y="-777" font-size="12" font-family="sans-serif" font-weight="bold" fill="#000" text-anchor="start">Sadi Carnot</text>
</g>
<circle cx="520" cy="-760" r="10" fill="white" stroke="#666" stroke-width="2.5"/>
<g>
<text x="469.71666634082794" y="-737" font-size="12" font-family="sans-serif" font-weight="bold" fill="#000" text-anchor="start">Belsunce Alcazar</text>
</g>
<circle cx="620" cy="-760" r="8" fill="#f6d32d" stroke="white" stroke-width="2"/>
<g>
<text x="561.2750006914139" y="-777" font-size="12" font-family="sans-serif" font-weight="bold" fill="#000" text-anchor="start">Canebière Capucins</text>
</g>
<circle cx="880" cy="-760" r="8" fill="#f6d32d" stroke="white" stroke-width="2"/>
<g>
<text x="854.1083335876465" y="-777" font-size="12" font-family="sans-serif" font-weight="bold" fill="#000" text-anchor="start">National</text>
</g>
<circle cx="960" cy="-760" r="8" fill="#f6d32d" stroke="white" stroke-width="2"/>
<g>
<text x="924.9749984741211" y="-737" font-size="12" font-family="sans-serif" font-weight="bold" fill="#000" text-anchor="start">Longchamp</text>
</g>
<circle cx="1040" cy="-760" r="8" fill="#f6d32d" stroke="white" stroke-width="2"/>
<g>
<text x="998.9916669130325" y="-777" font-size="12" font-family="sans-serif" font-weight="bold" fill="#000" text-anchor="start">Foch Sakakini</text>
</g>
<circle cx="1120" cy="-760" r="8" fill="#f6d32d" stroke="white" stroke-width="2"/>
<g>
<text x="1081.1999989748" y="-737" font-size="12" font-family="sans-serif" font-weight="bold" fill="#000" text-anchor="start">Foch Boisson</text>
</g>
<circle cx="-40" cy="-760" r="8" fill="#33d17a" stroke="white" stroke-width="2"/>
<g>
<text x="-87.51666533946991" y="-777" font-size="12" font-family="sans-serif" font-weight="bold" fill="#000" text-anchor="start">Salengro Cougit</text>
</g>
<circle cx="40" cy="-760" r="8" fill="#33d17a" stroke="white" stroke-width="2"/>
<g>
<text x="-9.01666533946991" y="-737" font-size="12" font-family="sans-serif" font-weight="bold" fill="#000" text-anchor="start">Salengro Bachas</text>
</g>
<circle cx="640" cy="-840" r="8" fill="#33d17a" stroke="white" stroke-width="2"/>
<g>
<text x="588.3416653871536" y="-857" font-size="12" font-family="sans-serif" font-weight="bold" fill="#000" text-anchor="start">Cours Saint-Louis</text>
</g>
<circle cx="720" cy="-840" r="8" fill="#33d17a" stroke="white" stroke-width="2"/>
<g>
<text x="682.8000011444092" y="-817" font-size="12" font-family="sans-serif" font-weight="bold" fill="#000" text-anchor="start">Rome-Davso</text>
</g>
<circle cx="800" cy="-840" r="8" fill="#33d17a" stroke="white" stroke-width="2"/>
<g>
<text x="756.599999666214" y="-857" font-size="12" font-family="sans-serif" font-weight="bold" fill="#000" text-anchor="start">Place de Rome</text>
</g>
<circle cx="880" cy="-840" r="8" fill="#33d17a" stroke="white" stroke-width="2"/>
<g>
<text x="838.9833335876465" y="-817" font-size="12" font-family="sans-serif" font-weight="bold" fill="#000" text-anchor="start">Rome-Dragon</text>
</g>
<circle cx="1040" cy="-840" r="8" fill="#33d17a" stroke="white" stroke-width="2"/>
<g>
<text x="961.8333343267441" y="-817" font-size="12" font-family="sans-serif" font-weight="bold" fill="#000" text-anchor="start">Parc du 26ème Centenaire</text>
</g>
<circle cx="1120" cy="-840" r="8" fill="#33d17a" stroke="white" stroke-width="2"/>
<g>
<text x="1079.2500010728836" y="-857" font-size="12" font-family="sans-serif" font-weight="bold" fill="#000" text-anchor="start">Cantini Rouet</text>
</g>
<circle cx="1200" cy="-840" r="8" fill="#33d17a" stroke="white" stroke-width="2"/>
<g>
<text x="1165.0333329439163" y="-817" font-size="12" font-family="sans-serif" font-weight="bold" fill="#000" text-anchor="start">Place Ferrié</text>
</g>
<circle cx="1360" cy="-840" r="8" fill="#33d17a" stroke="white" stroke-width="2"/>
<g>
<text x="1318.8833323717117" y="-817" font-size="12" font-family="sans-serif" font-weight="bold" fill="#000" text-anchor="start">Aubert Ganay</text>
</g>
<circle cx="1440" cy="-840" r="8" fill="#33d17a" stroke="white" stroke-width="2"/>
<g>
<text x="1402.2083331346512" y="-857" font-size="12" font-family="sans-serif" font-weight="bold" fill="#000" text-anchor="start">Parc Sévigné</text>
</g>
<circle cx="1520" cy="-840" r="8" fill="#33d17a" stroke="white" stroke-width="2"/>
<g>
<text x="1442.033331990242" y="-817" font-size="12" font-family="sans-serif" font-weight="bold" fill="#000" text-anchor="start">Hôpital Sainte-Marguerite</text>
</g>
<circle cx="1600" cy="-840" r="8" fill="#33d17a" stroke="white" stroke-width="2"/>
<g>
<text x="1614" y="-837" font-size="12" font-family="sans-serif" font-weight="bold" fill="#000" text-anchor="start">La Gaye</text>
</g>
</g>
<g id="legend">
<rect x="1999.733333349228" y="-949" width="250.95999999999998" height="358" fill="#f4f4f4" stroke="#bbb" stroke-width="1"/>
<rect x="2015.733333349228" y="-928" width="30" height="30" rx="2" fill="#ff7800" stroke="white" stroke-width="1.5"/>
<text x="2030.733333349228" y="-908.45" text-anchor="middle" font-family="sans-serif" font-size="13" font-weight="bold" fill="#000">T1</text>
<text x="2053.733333349228" y="-918" font-size="13" font-family="sans-serif" fill="#555">Noailles</text>
<text x="2053.733333349228" y="-902" font-size="13" font-family="sans-serif" fill="#555">Les Caillols</text>
<rect x="2015.733333349228" y="-888" width="30" height="30" rx="2" fill="#f6d32d" stroke="white" stroke-width="1.5"/>
<text x="2030.733333349228" y="-868.45" text-anchor="middle" font-family="sans-serif" font-size="13" font-weight="bold" fill="#000">T2</text>
<text x="2053.733333349228" y="-878" font-size="13" font-family="sans-serif" fill="#555">Arenc Euroméditerranée</text>
<text x="2053.733333349228" y="-862" font-size="13" font-family="sans-serif" fill="#555">La Blancarde</text>
<rect x="2015.733333349228" y="-848" width="30" height="30" rx="2" fill="#33d17a" stroke="white" stroke-width="1.5"/>
<text x="2030.733333349228" y="-828.45" text-anchor="middle" font-family="sans-serif" font-size="13" font-weight="bold" fill="#000">T3</text>
<text x="2053.733333349228" y="-838" font-size="13" font-family="sans-serif" fill="#555">Gèze</text>
<text x="2053.733333349228" y="-822" font-size="13" font-family="sans-serif" fill="#555">La Gaye</text>
<rect x="2020.1267316314297" y="-803.6066017177982" width="21.213203435596423" height="21.213203435596423" rx="2" fill="#3584e4" stroke="white" stroke-width="1.5" transform="rotate(45, 2030.733333349228, -793)"/>
<text x="2030.733333349228" y="-789.5" text-anchor="middle" font-family="sans-serif" font-size="10" font-weight="bold" fill="#fff">M1</text>
<text x="2053.733333349228" y="-798" font-size="13" font-family="sans-serif" fill="#555">La Rose</text>
<text x="2053.733333349228" y="-782" font-size="13" font-family="sans-serif" fill="#555">La Fourragère</text>
<rect x="2020.1267316314297" y="-763.6066017177982" width="21.213203435596423" height="21.213203435596423" rx="2" fill="#e01b24" stroke="white" stroke-width="1.5" transform="rotate(45, 2030.733333349228, -753)"/>
<text x="2030.733333349228" y="-749.5" text-anchor="middle" font-family="sans-serif" font-size="10" font-weight="bold" fill="#fff">M2</text>
<text x="2053.733333349228" y="-758" font-size="13" font-family="sans-serif" fill="#555">Gèze</text>
<text x="2053.733333349228" y="-742" font-size="13" font-family="sans-serif" fill="#555">Sainte-Marguerite-Dromel</text>
</g>
<g id="interchanges">
<rect x="855.7955989819578" y="-748.0710678118654" width="14.14213562373095" height="14.14213562373095" rx="2" fill="#3584e4" stroke="white" stroke-width="1.5" transform="rotate(45, 862.8666667938232, -741)"/>
<text x="862.8666667938232" y="-738.55" text-anchor="middle" font-family="sans-serif" font-size="7" font-weight="bold" fill="#fff">M1</text>
<rect x="941.4289321881346" y="-886.0710678118654" width="14.14213562373095" height="14.14213562373095" rx="2" fill="#3584e4" stroke="white" stroke-width="1.5" transform="rotate(45, 948.5, -879)"/>
<text x="948.5" y="-876.55" text-anchor="middle" font-family="sans-serif" font-size="7" font-weight="bold" fill="#fff">M1</text>
<rect x="964.4289321881346" y="-886.0710678118654" width="14.14213562373095" height="14.14213562373095" rx="2" fill="#e01b24" stroke="white" stroke-width="1.5" transform="rotate(45, 971.5, -879)"/>
<text x="971.5" y="-876.55" text-anchor="middle" font-family="sans-serif" font-size="7" font-weight="bold" fill="#fff">M2</text>
<rect x="1233.3289316874555" y="-668.0710678118654" width="14.14213562373095" height="14.14213562373095" rx="2" fill="#3584e4" stroke="white" stroke-width="1.5" transform="rotate(45, 1240.399999499321, -661)"/>
<text x="1240.399999499321" y="-658.55" text-anchor="middle" font-family="sans-serif" font-size="7" font-weight="bold" fill="#fff">M1</text>
<rect x="739.1122646313719" y="-788.0710678118654" width="14.14213562373095" height="14.14213562373095" rx="2" fill="#e01b24" stroke="white" stroke-width="1.5" transform="rotate(45, 746.1833324432373, -781)"/>
<text x="746.1833324432373" y="-778.55" text-anchor="middle" font-family="sans-serif" font-size="7" font-weight="bold" fill="#fff">M2</text>
<rect x="1272.9289321881345" y="-886.0710678118654" width="14.14213562373095" height="14.14213562373095" rx="2" fill="#e01b24" stroke="white" stroke-width="1.5" transform="rotate(45, 1280, -879)"/>
<text x="1280" y="-876.55" text-anchor="middle" font-family="sans-serif" font-size="7" font-weight="bold" fill="#fff">M2</text>
<rect x="296.61226463137183" y="-788.0710678118654" width="14.14213562373095" height="14.14213562373095" rx="2" fill="#e01b24" stroke="white" stroke-width="1.5" transform="rotate(45, 303.6833324432373, -781)"/>
<text x="303.6833324432373" y="-778.55" text-anchor="middle" font-family="sans-serif" font-size="7" font-weight="bold" fill="#fff">M2</text>
<rect x="-127.07106781186548" y="-768.0710678118654" width="14.14213562373095" height="14.14213562373095" rx="2" fill="#e01b24" stroke="white" stroke-width="1.5" transform="rotate(45, -120, -761)"/>
<text x="-120" y="-758.55" text-anchor="middle" font-family="sans-serif" font-size="7" font-weight="bold" fill="#fff">M2</text>
</g>
</svg>