<?xml version="1.0" encoding="UTF-8"?>
<svg xmlns="http://www.w3.org/2000/svg" xmlns:xlink="http://www.w3.org/1999/xlink" viewBox="295.28333139419556 -1309 1955.4100019550324 1374" width="1200" height="843">
<rect x="295.28333139419556" y="-1309" width="1955.4100019550324" height="1374" fill="#f8f8f8"/>
<g id="lines">
<path d="M 720 -680 L 760 -640 L 840 -640 L 920 -640 L 1000 -640 L 1080 -640 L 1200 -640 L 1280 -640 L 1360 -640 L 1400 -680 L 1440 -680 L 1520 -680 L 1600 -680 L 1680 -680 L 1760 -680 L 1840 -680" fill="none" stroke="#ff7800" stroke-width="6" stroke-linecap="round" stroke-linejoin="round"/>
<path d="M 514 -1040 L 514.8786796564403 -1039.1213203435595 L 514.8786796564403 -957.8786796564403 L 552.7573593128807 -920 L 555.7573593128807 -920 L 517.8786796564403 -882.1213203435597 L 514.8786796564403 -882.1213203435597 L 514 -881.2426406871193 L 514 -800 L 514 -720 L 554 -680 L 640 -680 L 720 -680 L 760 -720 L 800 -720 L 880 -720 L 960 -720 L 1040 -720 L 1120 -720 L 1200 -640" fill="none" stroke="#f6d32d" stroke-width="6" stroke-linecap="round" stroke-linejoin="round"/>
<path d="M 600 -1240 L 560 -1240 L 520 -1200 L 520 -1120 L 526 -1114 L 526 -1040 L 525.1213203435597 -1039.1213203435595 L 525.1213203435597 -962.1213203435597 L 564.2426406871193 -923 L 564.2426406871193 -920 L 525.1213203435597 -880.8786796564403 L 525.1213203435597 -877.8786796564403 L 526 -877 L 526 -800 L 526 -720 L 560 -686 L 560 -640 L 560 -600 L 560 -560 L 560 -520 L 560 -480 L 600 -440 L 640 -400 L 680 -360 L 720 -320 L 760 -280 L 760 -240 L 760 -160 L 760 -120 L 800 -80 L 840 -40 L 880 0" fill="none" stroke="#33d17a" stroke-width="6" stroke-linecap="round" stroke-linejoin="round"/>
<path d="M 600 -1240 L 600 -1120 L 600 -1040 L 600 -960 L 560 -920 L 640 -840 L 720 -760 L 720 -680 L 720 -560 L 600 -440 L 600 -360 L 600 -280 L 640 -240 L 760 -240" fill="none" stroke="#e01b24" stroke-width="8" stroke-linecap="round" stroke-linejoin="round"/>
<path d="M 1360 -1160 L 1280 -1080 L 1200 -1000 L 1120 -920 L 1040 -840 L 960 -760 L 840 -760 L 800 -720 L 760 -760 L 720 -760 L 600 -760 L 520 -680 L 520 -640 L 520 -560 L 520 -480 L 560 -440 L 600 -440 L 800 -440 L 1000 -440 L 1160 -440 L 1200 -480 L 1200 -640 L 1200 -720 L 1240 -760 L 1320 -840 L 1400 -920" fill="none" stroke="#3584e4" stroke-width="8" stroke-linecap="round" stroke-linejoin="round"/>
</g>
<g id="stations">
<circle cx="1360" cy="-1160" r="8" fill="#3584e4" stroke="white" stroke-width="2"/>
<g>
<text x="1374" y="-1157" font-size="11" font-family="sans-serif" font-weight="bold" fill="#000" text-anchor="start">La Rose</text>
<text x="1374" y="-1144" font-size="9" font-family="sans-serif" fill="#666" text-anchor="start">Technopole de Château-Gombert</text>
</g>
<circle cx="1280" cy="-1080" r="8" fill="#3584e4" stroke="white" stroke-width="2"/>
<g>
<text x="1294" y="-1077" font-size="12" font-family="sans-serif" font-weight="bold" fill="#000" text-anchor="start">Frais Vallon</text>
</g>
<circle cx="1200" cy="-1000" r="8" fill="#3584e4" stroke="white" stroke-width="2"/>
<g>
<text x="1214" y="-997" font-size="12" font-family="sans-serif" font-weight="bold" fill="#000" text-anchor="start">Malpassé</text>
</g>
<circle cx="1040" cy="-840" r="8" fill="#3584e4" stroke="white" stroke-width="2"/>
<g>
<text x="1054" y="-837" font-size="12" font-family="sans-serif" font-weight="bold" fill="#000" text-anchor="start">Chartreux</text>
</g>
<circle cx="1120" cy="-920" r="8" fill="#3584e4" stroke="white" stroke-width="2"/>
<g>
<text x="1134" y="-917" font-size="11" font-family="sans-serif" font-weight="bold" fill="#000" text-anchor="start">Saint-Just</text>
<text x="1134" y="-904" font-size="9" font-family="sans-serif" fill="#666" text-anchor="start">Hôtel de Département</text>
</g>
<circle cx="960" cy="-760" r="8" fill="#3584e4" stroke="white" stroke-width="2"/>
<g>
<text x="892.9166671037674" y="-784" font-size="11" font-family="sans-serif" font-weight="bold" fill="#000" text-anchor="start">Cinq Avenues</text>
<text x="892.9166671037674" y="-771" font-size="9" font-family="sans-serif" fill="#666" text-anchor="start">Longchamp</text>
</g>
<circle cx="800" cy="-720" r="10" fill="white" stroke="#666" stroke-width="2.5"/>
<g>
<text x="759.1333332061768" y="-697" font-size="12" font-family="sans-serif" font-weight="bold" fill="#000" text-anchor="start">Réformés-Canebière</text>
</g>
<circle cx="720" cy="-760" r="10" fill="white" stroke="#666" stroke-width="2.5"/>
<g>
<text x="722" y="-784" font-size="11" font-family="sans-serif" font-weight="bold" fill="#000" text-anchor="start">Saint-Charles</text>
<text x="749.7833316326141" y="-771" font-size="9" font-family="sans-serif" fill="#666" text-anchor="start">Gare SNCF</text>
</g>
<circle cx="600" cy="-760" r="8" fill="#3584e4" stroke="white" stroke-width="2"/>
<g>
<text x="579.7916660308838" y="-791" font-size="11" font-family="sans-serif" font-weight="bold" fill="#000" text-anchor="start">Colbert</text>
<text x="566.2000005245209" y="-778" font-size="9" font-family="sans-serif" fill="#666" text-anchor="start">Hôtel de Région</text>
</g>
<circle cx="520" cy="-640" r="8" fill="#3584e4" stroke="white" stroke-width="2"/>
<g>
<text x="448.6000003814697" y="-637" font-size="11" font-family="sans-serif" font-weight="bold" fill="#000" text-anchor="start">Vieux-Port</text>
<text x="450.516667842865" y="-624" font-size="9" font-family="sans-serif" fill="#666" text-anchor="start">Hôtel de Ville</text>
</g>
<circle cx="520" cy="-560" r="8" fill="#3584e4" stroke="white" stroke-width="2"/>
<g>
<text x="453.7333335876465" y="-557" font-size="11" font-family="sans-serif" font-weight="bold" fill="#000" text-anchor="start">Estrangin</text>
<text x="462" y="-544" font-size="9" font-family="sans-serif" fill="#666" text-anchor="start">Préfecture</text>
</g>
<circle cx="600" cy="-440" r="10" fill="white" stroke="#666" stroke-width="2.5"/>
<g>
<text x="527.4166679382324" y="-419" font-size="12" font-family="sans-serif" font-weight="bold" fill="#000" text-anchor="start">Castellane</text>
</g>
<circle cx="800" cy="-440" r="8" fill="#3584e4" stroke="white" stroke-width="2"/>
<g>
<text x="783.4583339691162" y="-457" font-size="12" font-family="sans-serif" font-weight="bold" fill="#000" text-anchor="start">Baille</text>
</g>
<circle cx="1000" cy="-440" r="8" fill="#3584e4" stroke="white" stroke-width="2"/>
<g>
<text x="969.1666661500931" y="-457" font-size="12" font-family="sans-serif" font-weight="bold" fill="#000" text-anchor="start">La Timone</text>
</g>
<circle cx="1200" cy="-640" r="10" fill="white" stroke="#666" stroke-width="2.5"/>
<g transform="rotate(45, 1208, -623)">
<text x="1208" y="-623" font-size="12" font-family="sans-serif" font-weight="bold" fill="#000" text-anchor="start">La Blancarde</text>
</g>
<circle cx="1240" cy="-760" r="8" fill="#3584e4" stroke="white" stroke-width="2"/>
<g>
<text x="1254" y="-757" font-size="12" font-family="sans-serif" font-weight="bold" fill="#000" text-anchor="start">Louis Armand</text>
</g>
<circle cx="1320" cy="-840" r="8" fill="#3584e4" stroke="white" stroke-width="2"/>
<g>
<text x="1334" y="-837" font-size="12" font-family="sans-serif" font-weight="bold" fill="#000" text-anchor="start">Saint-Barnabé</text>
</g>
<circle cx="1400" cy="-920" r="8" fill="#3584e4" stroke="white" stroke-width="2"/>
<g>
<text x="1414" y="-917" font-size="12" font-family="sans-serif" font-weight="bold" fill="#000" text-anchor="start">La Fourragère</text>
</g>
<circle cx="720" cy="-680" r="10" fill="white" stroke="#666" stroke-width="2.5"/>
<g>
<text x="737" y="-677" font-size="12" font-family="sans-serif" font-weight="bold" fill="#000" text-anchor="start">Noailles</text>
</g>
<circle cx="720" cy="-560" r="8" fill="#e01b24" stroke="white" stroke-width="2"/>
<g>
<text x="734" y="-557" font-size="11" font-family="sans-serif" font-weight="bold" fill="#000" text-anchor="start">Notre-Dame du Mont</text>
<text x="734" y="-544" font-size="9" font-family="sans-serif" fill="#666" text-anchor="start">Cours Julien</text>
</g>
<circle cx="600" cy="-360" r="8" fill="#e01b24" stroke="white" stroke-width="2"/>
<g>
<text x="549.9000015258789" y="-357" font-size="12" font-family="sans-serif" font-weight="bold" fill="#000" text-anchor="start">Périer</text>
</g>
<circle cx="600" cy="-280" r="8" fill="#e01b24" stroke="white" stroke-width="2"/>
<g>
<text x="463.43333673477173" y="-277" font-size="12" font-family="sans-serif" font-weight="bold" fill="#000" text-anchor="start">Rond-Point du Prado</text>
</g>
<circle cx="760" cy="-240" r="10" fill="white" stroke="#666" stroke-width="2.5"/>
<g>
<text x="774" y="-237" font-size="12" font-family="sans-serif" font-weight="bold" fill="#000" text-anchor="start">Sainte-Marguerite-Dromel</text>
</g>
<circle cx="640" cy="-840" r="8" fill="#e01b24" stroke="white" stroke-width="2"/>
<g>
<text x="654" y="-837" font-size="12" font-family="sans-serif" font-weight="bold" fill="#000" text-anchor="start">Jules Guesde</text>
</g>
<circle cx="560" cy="-920" r="10" fill="white" stroke="#666" stroke-width="2.5"/>
<g>
<text x="584" y="-917" font-size="12" font-family="sans-serif" font-weight="bold" fill="#000" text-anchor="start">Joliette</text>
</g>
<circle cx="600" cy="-960" r="8" fill="#e01b24" stroke="white" stroke-width="2"/>
<g>
<text x="614" y="-957" font-size="12" font-family="sans-serif" font-weight="bold" fill="#000" text-anchor="start">Désirée Clary</text>
</g>
<circle cx="600" cy="-1040" r="8" fill="#e01b24" stroke="white" stroke-width="2"/>
<g>
<text x="614" y="-1037" font-size="12" font-family="sans-serif" font-weight="bold" fill="#000" text-anchor="start">National</text>
</g>
<circle cx="600" cy="-1120" r="8" fill="#e01b24" stroke="white" stroke-width="2"/>
<g>
<text x="614" y="-1117" font-size="12" font-family="sans-serif" font-weight="bold" fill="#000" text-anchor="start">Bougainville</text>
</g>
<circle cx="600" cy="-1240" r="10" fill="white" stroke="#666" stroke-width="2.5"/>
<g>
<text x="614" y="-1237" font-size="12" font-family="sans-serif" font-weight="bold" fill="#000" text-anchor="start">Gèze</text>
</g>
<circle cx="840" cy="-640" r="8" fill="#ff7800" stroke="white" stroke-width="2"/>
<g transform="rotate(45, 848, -623)">
<text x="848" y="-623" font-size="12" font-family="sans-serif" font-weight="bold" fill="#000" text-anchor="start">Eugène Pierre</text>
</g>
<circle cx="920" cy="-640" r="8" fill="#ff7800" stroke="white" stroke-width="2"/>
<g transform="rotate(45, 928, -623)">
<text x="928" y="-623" font-size="12" font-family="sans-serif" font-weight="bold" fill="#000" text-anchor="start">Camas</text>
</g>
<circle cx="1000" cy="-640" r="8" fill="#ff7800" stroke="white" stroke-width="2"/>
<g transform="rotate(45, 1008, -623)">
<text x="1008" y="-623" font-size="12" font-family="sans-serif" font-weight="bold" fill="#000" text-anchor="start">George</text>
</g>
<circle cx="1080" cy="-640" r="8" fill="#ff7800" stroke="white" stroke-width="2"/>
<g transform="rotate(45, 1088, -623)">
<text x="1088" y="-623" font-size="12" font-family="sans-serif" font-weight="bold" fill="#000" text-anchor="start">Jean Martin</text>
</g>
<circle cx="1280" cy="-640" r="8" fill="#ff7800" stroke="white" stroke-width="2"/>
<g transform="rotate(45, 1288, -623)">
<text x="1288" y="-623" font-size="12" font-family="sans-serif" font-weight="bold" fill="#000" text-anchor="start">Sainte-Thérèse</text>
</g>
<circle cx="1360" cy="-640" r="8" fill="#ff7800" stroke="white" stroke-width="2"/>
<g transform="rotate(45, 1368, -623)">
<text x="1368" y="-623" font-size="12" font-family="sans-serif" font-weight="bold" fill="#000" text-anchor="start">Saint Pierre</text>
</g>
<circle cx="1440" cy="-680" r="8" fill="#ff7800" stroke="white" stroke-width="2"/>
<g transform="rotate(45, 1448, -663)">
<text x="1448" y="-663" font-size="12" font-family="sans-serif" font-weight="bold" fill="#000" text-anchor="start">La Parette</text>
</g>
<circle cx="1520" cy="-680" r="8" fill="#ff7800" stroke="white" stroke-width="2"/>
<g transform="rotate(45, 1528, -663)">
<text x="1528" y="-663" font-size="12" font-family="sans-serif" font-weight="bold" fill="#000" text-anchor="start">La Boiseraie</text>
</g>
<circle cx="1600" cy="-680" r="8" fill="#ff7800" stroke="white" stroke-width="2"/>
<g transform="rotate(45, 1608, -663)">
<text x="1608" y="-663" font-size="12" font-family="sans-serif" font-weight="bold" fill="#000" text-anchor="start">Air-Bel</text>
</g>
<circle cx="1680" cy="-680" r="8" fill="#ff7800" stroke="white" stroke-width="2"/>
<g transform="rotate(45, 1690, -661)">
<text x="1690" y="-661" font-size="12" font-family="sans-serif" font-weight="bold" fill="#000" text-anchor="start">La Grognarde</text>
</g>
<circle cx="1760" cy="-680" r="8" fill="#ff7800" stroke="white" stroke-width="2"/>
<g transform="rotate(45, 1768, -663)">
<text x="1768" y="-663" font-size="12" font-family="sans-serif" font-weight="bold" fill="#000" text-anchor="start">William Booth</text>
</g>
<circle cx="1840" cy="-680" r="8" fill="#ff7800" stroke="white" stroke-width="2"/>
<g>
<text x="1854" y="-677" font-size="12" font-family="sans-serif" font-weight="bold" fill="#000" text-anchor="start">Les Caillols</text>
</g>
<circle cx="520" cy="-1040" r="10" fill="white" stroke="#666" stroke-width="2.5"/>
<g>
<text x="358.9666655063629" y="-1037" font-size="12" font-family="sans-serif" font-weight="bold" fill="#000" text-anchor="start">Arenc Euroméditerranée</text>
</g>
<circle cx="520" cy="-960" r="10" fill="white" stroke="#666" stroke-width="2.5"/>
<g>
<text x="355.28333139419556" y="-957" font-size="12" font-family="sans-serif" font-weight="bold" fill="#000" text-anchor="start">Euroméditerranée Le Silo</text>
</g>
<circle cx="520" cy="-880" r="10" fill="white" stroke="#666" stroke-width="2.5"/>
<g>
<text x="393.5999984741211" y="-877" font-size="12" font-family="sans-serif" font-weight="bold" fill="#000" text-anchor="start">République-Dames</text>
</g>
<circle cx="520" cy="-800" r="10" fill="white" stroke="#666" stroke-width="2.5"/>
<g>
<text x="437.16666626930237" y="-797" font-size="12" font-family="sans-serif" font-weight="bold" fill="#000" text-anchor="start">Sadi Carnot</text>
</g>
<circle cx="520" cy="-720" r="10" fill="white" stroke="#666" stroke-width="2.5"/>
<g>
<text x="405.4333326816559" y="-717" font-size="12" font-family="sans-serif" font-weight="bold" fill="#000" text-anchor="start">Belsunce Alcazar</text>
</g>
<circle cx="640" cy="-680" r="8" fill="#f6d32d" stroke="white" stroke-width="2"/>
<g>
<text x="581.2750006914139" y="-697" font-size="12" font-family="sans-serif" font-weight="bold" fill="#000" text-anchor="start">Canebière Capucins</text>
</g>
<circle cx="880" cy="-720" r="8" fill="#f6d32d" stroke="white" stroke-width="2"/>
<g>
<text x="854.1083335876465" y="-737" font-size="12" font-family="sans-serif" font-weight="bold" fill="#000" text-anchor="start">National</text>
</g>
<circle cx="960" cy="-720" r="8" fill="#f6d32d" stroke="white" stroke-width="2"/>
<g transform="rotate(-45, 974, -737)">
<text x="974" y="-737" font-size="12" font-family="sans-serif" font-weight="bold" fill="#000" text-anchor="start">Longchamp</text>
</g>
<circle cx="1040" cy="-720" r="8" fill="#f6d32d" stroke="white" stroke-width="2"/>
<g transform="rotate(-45, 1054, -737)">
<text x="1054" y="-737" font-size="12" font-family="sans-serif" font-weight="bold" fill="#000" text-anchor="start">Foch Sakakini</text>
</g>
<circle cx="1120" cy="-720" r="8" fill="#f6d32d" stroke="white" stroke-width="2"/>
<g transform="rotate(-45, 1134, -737)">
<text x="1134" y="-737" font-size="12" font-family="sans-serif" font-weight="bold" fill="#000" text-anchor="start">Foch Boisson</text>
</g>
<circle cx="520" cy="-1200" r="8" fill="#33d17a" stroke="white" stroke-width="2"/>
<g>
<text x="410.9666693210602" y="-1197" font-size="12" font-family="sans-serif" font-weight="bold" fill="#000" text-anchor="start">Salengro Cougit</text>
</g>
<circle cx="520" cy="-1120" r="8" fill="#33d17a" stroke="white" stroke-width="2"/>
<g>
<text x="407.9666693210602" y="-1117" font-size="12" font-family="sans-serif" font-weight="bold" fill="#000" text-anchor="start">Salengro Bachas</text>
</g>
<circle cx="560" cy="-640" r="8" fill="#33d17a" stroke="white" stroke-width="2"/>
<g>
<text x="574" y="-637" font-size="12" font-family="sans-serif" font-weight="bold" fill="#000" text-anchor="start">Cours Saint-Louis</text>
</g>
<circle cx="560" cy="-600" r="8" fill="#33d17a" stroke="white" stroke-width="2"/>
<g>
<text x="574" y="-597" font-size="12" font-family="sans-serif" font-weight="bold" fill="#000" text-anchor="start">Rome-Davso</text>
</g>
<circle cx="560" cy="-560" r="8" fill="#33d17a" stroke="white" stroke-width="2"/>
<g>
<text x="574" y="-557" font-size="12" font-family="sans-serif" font-weight="bold" fill="#000" text-anchor="start">Place de Rome</text>
</g>
<circle cx="560" cy="-520" r="8" fill="#33d17a" stroke="white" stroke-width="2"/>
<g>
<text x="574" y="-517" font-size="12" font-family="sans-serif" font-weight="bold" fill="#000" text-anchor="start">Rome-Dragon</text>
</g>
<circle cx="640" cy="-400" r="8" fill="#33d17a" stroke="white" stroke-width="2"/>
<g>
<text x="654" y="-397" font-size="12" font-family="sans-serif" font-weight="bold" fill="#000" text-anchor="start">Parc du 26ème Centenaire</text>
</g>
<circle cx="680" cy="-360" r="8" fill="#33d17a" stroke="white" stroke-width="2"/>
<g>
<text x="694" y="-357" font-size="12" font-family="sans-serif" font-weight="bold" fill="#000" text-anchor="start">Cantini Rouet</text>
</g>
<circle cx="720" cy="-320" r="8" fill="#33d17a" stroke="white" stroke-width="2"/>
<g>
<text x="734" y="-317" font-size="12" font-family="sans-serif" font-weight="bold" fill="#000" text-anchor="start">Place Ferrié</text>
</g>
<circle cx="760" cy="-160" r="8" fill="#33d17a" stroke="white" stroke-width="2"/>
<g>
<text x="774" y="-157" font-size="12" font-family="sans-serif" font-weight="bold" fill="#000" text-anchor="start">Aubert Ganay</text>
</g>
<circle cx="800" cy="-80" r="8" fill="#33d17a" stroke="white" stroke-width="2"/>
<g>
<text x="814" y="-77" font-size="12" font-family="sans-serif" font-weight="bold" fill="#000" text-anchor="start">Parc Sévigné</text>
</g>
<circle cx="840" cy="-40" r="8" fill="#33d17a" stroke="white" stroke-width="2"/>
<g>
<text x="854" y="-37" font-size="12" font-family="sans-serif" font-weight="bold" fill="#000" text-anchor="start">Hôpital Sainte-Marguerite</text>
</g>
<circle cx="880" cy="0" r="8" fill="#33d17a" stroke="white" stroke-width="2"/>
<g>
<text x="894" y="3" font-size="12" font-family="sans-serif" font-weight="bold" fill="#000" text-anchor="start">La Gaye</text>
</g>
</g>
<g id="legend">
<rect x="1999.733333349228" y="-1309" width="250.95999999999998" height="1374" fill="#f4f4f4" stroke="#bbb" stroke-width="1"/>
<rect x="2015.733333349228" y="-1288" width="30" height="30" rx="2" fill="#ff7800" stroke="white" stroke-width="1.5"/>
<text x="2030.733333349228" y="-1268.45" text-anchor="middle" font-family="sans-serif" font-size="13" font-weight="bold" fill="#000">T1</text>
<text x="2053.733333349228" y="-1278" font-size="13" font-family="sans-serif" fill="#555">Noailles</text>
<text x="2053.733333349228" y="-1262" font-size="13" font-family="sans-serif" fill="#555">Les Caillols</text>
<rect x="2015.733333349228" y="-1248" width="30" height="30" rx="2" fill="#f6d32d" stroke="white" stroke-width="1.5"/>
<text x="2030.733333349228" y="-1228.45" text-anchor="middle" font-family="sans-serif" font-size="13" font-weight="bold" fill="#000">T2</text>
<text x="2053.733333349228" y="-1238" font-size="13" font-family="sans-serif" fill="#555">Arenc Euroméditerranée</text>
<text x="2053.733333349228" y="-1222" font-size="13" font-family="sans-serif" fill="#555">La Blancarde</text>
<rect x="2015.733333349228" y="-1208" width="30" height="30" rx="2" fill="#33d17a" stroke="white" stroke-width="1.5"/>
<text x="2030.733333349228" y="-1188.45" text-anchor="middle" font-family="sans-serif" font-size="13" font-weight="bold" fill="#000">T3</text>
<text x="2053.733333349228" y="-1198" font-size="13" font-family="sans-serif" fill="#555">Gèze</text>
<text x="2053.733333349228" y="-1182" font-size="13" font-family="sans-serif" fill="#555">La Gaye</text>
<rect x="2020.1267316314297" y="-1163.6066017177982" width="21.213203435596423" height="21.213203435596423" rx="2" fill="#3584e4" stroke="white" stroke-width="1.5" transform="rotate(45, 2030.733333349228, -1153)"/>
<text x="2030.733333349228" y="-1149.5" text-anchor="middle" font-family="sans-serif" font-size="10" font-weight="bold" fill="#fff">M1</text>
<text x="2053.733333349228" y="-1158" font-size="13" font-family="sans-serif" fill="#555">La Rose</text>
<text x="2053.733333349228" y="-1142" font-size="13" font-family="sans-serif" fill="#555">La Fourragère</text>
<rect x="2020.1267316314297" y="-1123.6066017177982" width="21.213203435596423" height="21.213203435596423" rx="2" fill="#e01b24" stroke="white" stroke-width="1.5" transform="rotate(45, 2030.733333349228, -1113)"/>
<text x="2030.733333349228" y="-1109.5" text-anchor="middle" font-family="sans-serif" font-size="10" font-weight="bold" fill="#fff">M2</text>
<text x="2053.733333349228" y="-1118" font-size="13" font-family="sans-serif" fill="#555">Gèze</text>
<text x="2053.733333349228" y="-1102" font-size="13" font-family="sans-serif" fill="#555">Sainte-Marguerite-Dromel</text>
</g>
<g id="interchanges">
</g>
</svg>